<?xml version="1.0" encoding="UTF-8"?>
<svg width="440px" height="372px" viewBox="0 0 440 372" version="1.1" xmlns="http://www.w3.org/2000/svg" xmlns:xlink="http://www.w3.org/1999/xlink">
    <title>Untitled</title>
    <defs>
        <filter id="filter-1">
            <feColorMatrix in="SourceGraphic" type="matrix" values="0 0 0 0 1.000000 0 0 0 0 1.000000 0 0 0 0 1.000000 0 0 0 1.000000 0"></feColorMatrix>
        </filter>
    </defs>
    <g id="Page-1" stroke="none" stroke-width="1" fill="none" fill-rule="evenodd">
        <g filter="url(#filter-1)" id="123-numbers">
            <g transform="translate(-23.000000, 0.000000)">
                <g id="Group" transform="translate(244.746451, 191.648436) rotate(-10.000000) translate(-244.746451, -191.648436) translate(23.746451, 36.148436)" fill="#000000" fill-rule="nonzero">
                    <path d="M70.6472211,96.0731159 C63.8317763,96.0731159 57.3524353,97.5045721 48.2682875,100.037873 L22.2762348,107.703698 C8.95344058,111.649621 0,123.496805 0,137.142728 C0,153.378456 13.724252,167.099718 29.969285,167.099718 C33.236964,167.099718 36.7007038,166.478164 38.8386995,165.979038 L38.8386995,278.009329 C38.8386995,295.98729 53.3471945,310.622047 71.1700496,310.622047 C88.9929047,310.622047 103.492063,295.98729 103.492063,278.009329 L103.492063,128.704669 C103.482727,110.698456 88.9929047,96.0731159 70.6472211,96.0731159 Z" id="Path"></path>
                    <path d="M248.80986,199.588465 L220.833731,199.588465 L222.047629,198.653016 C255.331036,173.04041 275.55327,154.780437 275.55327,117.035052 C275.55327,75.6320595 244.914092,47.8211474 199.331728,47.8211474 C169.934679,47.8211474 148.413856,57.5030492 129.471391,79.3270845 C124.578156,85.0988079 121.783366,92.629176 121.783366,99.9537451 C121.783366,116.932152 135.700855,130.748741 152.780127,130.748741 C161.64441,130.748741 170.028779,127.175324 175.71246,121.010712 C185.207217,110.814313 190.232193,108.943414 196.696909,108.943414 C207.800788,108.943414 209.080557,115.528978 209.080557,120.468151 C209.080557,129.149122 205.27889,135.865649 181.640802,155.033008 L129.076168,197.857884 C119.110907,205.846623 113.84127,216.183339 113.84127,227.736139 C113.84127,246.332874 128.012831,259.354331 148.282115,259.354331 L248.81927,259.354331 C265.465678,259.354331 278.997354,245.968049 278.997354,229.560266 C278.997354,213.068292 265.446858,199.588465 248.80986,199.588465 Z" id="Path"></path>
                    <path d="M403.837651,81.8386279 L424.322308,62.1762838 C432.714742,54.0855583 440.25482,45.5432577 440.25482,30.4437061 C440.25482,12.7946354 426.401684,0 407.275177,0 L317.487375,0 C301.058436,0 287.673628,13.4343672 287.673628,29.9450917 C287.673628,46.4275926 301.058436,59.8619599 317.487375,59.8619599 L344.256991,59.8619599 L329.495299,74.8015785 C323.762967,80.5685719 317.178278,88.6781131 317.178278,100.277955 C317.178278,116.769864 330.563086,130.194824 346.992025,130.194824 L353.323817,130.194824 C360.442399,130.194824 376.955637,131.276723 376.955637,141.813482 C376.955637,150.826173 367.411116,151.813995 363.308565,151.813995 C352.518293,151.813995 344.125859,148.577704 335.208898,140.976185 C328.830274,135.660767 322.039521,133.054801 314.330846,133.054801 C297.040184,133.054801 282.44709,147.702777 282.44709,165.060205 C282.44709,173.950595 286.727606,183.170259 293.583925,189.097186 C312.139071,205.137519 335.443062,213.256468 362.793404,213.256468 C409.167221,213.256468 441.566138,183.217298 441.566138,139.687314 C441.566138,112.244703 428.359294,92.2719003 403.837651,81.8386279 Z" id="Path"></path>
                </g>
            </g>
        </g>
    </g>
</svg>