<?xml version="1.0" encoding="UTF-8"?>
<svg width="1024px" height="864px" viewBox="0 0 1024 864" version="1.1" xmlns="http://www.w3.org/2000/svg" xmlns:xlink="http://www.w3.org/1999/xlink">
    <title>Untitled</title>
    <defs>
        <filter id="filter-1">
            <feColorMatrix in="SourceGraphic" type="matrix" values="0 0 0 0 1.000000 0 0 0 0 1.000000 0 0 0 0 1.000000 0 0 0 1.000000 0"></feColorMatrix>
        </filter>
    </defs>
    <g id="Page-1" stroke="none" stroke-width="1" fill="none" fill-rule="evenodd">
        <g filter="url(#filter-1)" id="123-numbers">
            <g transform="translate(519.000000, 443.500000) rotate(-10.000000) translate(-519.000000, -443.500000) translate(7.000000, 83.000000)">
                <path d="M163.832206,223 C148.027064,223 133.001353,226.322623 111.935047,232.202792 L51.6589986,249.996313 C20.7631935,259.155386 0,286.654464 0,318.328681 C0,356.014222 31.826793,387.863313 69.4993234,387.863313 C77.0771313,387.863313 85.1096076,386.420595 90.067659,385.262049 L90.067659,645.301027 C90.067659,687.03055 123.713126,721 165.044655,721 C206.376184,721 240,687.03055 240,645.301027 L240,298.742692 C239.978349,256.94759 206.376184,223 163.832206,223 Z" id="Path" fill="#000000" fill-rule="nonzero"></path>
                <path d="M576.994644,463.274532 L512.117486,463.274532 L514.932539,461.103215 C592.117372,401.652545 639.013105,359.26843 639.013105,271.655773 C639.013105,175.553266 567.960287,111 462.253946,111 C394.081648,111 344.174463,133.473135 300.246539,184.129969 C288.899037,197.526998 282.417868,215.006103 282.417868,232.007518 C282.417868,271.416928 314.692781,303.487286 354.299926,303.487286 C374.856361,303.487286 394.299869,295.192854 407.480428,280.883872 C429.498946,257.216513 441.151957,252.873878 456.143752,252.873878 C481.893852,252.873878 484.86166,268.159952 484.86166,279.624508 C484.86166,299.774333 476.045524,315.364392 421.228363,359.854685 L299.33001,459.257595 C276.220386,477.800646 264,501.793703 264,528.609472 C264,571.775262 296.86411,602 343.868953,602 L577.016466,602 C615.619794,602 647,570.928448 647,532.843541 C647,494.563216 615.57615,463.274532 576.994644,463.274532 Z" id="Path" fill="#000000" fill-rule="nonzero"></path>
                <path d="M936.506946,189.959635 L984.011243,144.320408 C1003.47345,125.54063 1020.95903,105.712679 1020.95903,70.6643727 C1020.95903,29.698253 988.833353,0 944.478632,0 L736.259065,0 C698.160054,0 667.120438,31.1831657 667.120438,69.5070143 C667.120438,107.765352 698.160054,138.948518 736.259065,138.948518 L798.338298,138.948518 L764.105663,173.625596 C750.812279,187.011646 735.542265,205.835098 735.542265,232.760058 C735.542265,271.040233 766.581881,302.201562 804.680892,302.201562 L819.364434,302.201562 C835.872557,302.201562 874.167059,304.712811 874.167059,329.170196 C874.167059,350.089995 852.033141,352.382875 842.519249,352.382875 C817.496409,352.382875 798.034201,344.870963 777.355604,327.226707 C762.563457,314.88883 746.815576,308.839995 728.939016,308.839995 C688.841653,308.839995 655,342.840127 655,383.129301 C655,403.76522 664.926595,425.165431 680.826525,438.92271 C723.856251,476.154711 777.898634,495 841.324582,495 C948.866317,495 1024,425.274616 1024,324.235045 C1024,260.53666 993.373087,214.176813 936.506946,189.959635 Z" id="Path" fill="#000000" fill-rule="nonzero"></path>
            </g>
        </g>
    </g>
</svg>