<?xml version="1.0" encoding="UTF-8"?>
<svg width="90px" height="90px" viewBox="0 0 90 90" version="1.1" xmlns="http://www.w3.org/2000/svg" xmlns:xlink="http://www.w3.org/1999/xlink">
    <title>Untitled</title>
    <g id="Page-1" stroke="none" stroke-width="1" fill="none" fill-rule="evenodd">
        <g id="backspace-round-24px">
            <polygon id="Path" points="0 0 90 0 90 90 0 90"></polygon>
            <path d="M82.5194369,11 L26.4152133,11 C23.834419,11 21.8146669,12.3222222 20.4681656,14.3244444 L1.61714646,42.9222222 C0.794284514,44.2066667 0.794284514,45.8311111 1.61714646,47.1155556 L20.4681656,75.6755556 C21.8146669,77.64 23.834419,79 26.4152133,79 L82.5194369,79 C86.6337466,79 90,75.6 90,71.4444444 L90,18.5555556 C90,14.4 86.6337466,11 82.5194369,11 Z M68.680395,61.2444444 C67.2216852,62.7177778 64.8653078,62.7177778 63.406598,61.2444444 L52.5971843,50.3266667 L41.7877705,61.2444444 C40.3290607,62.7177778 37.9726833,62.7177778 36.5139735,61.2444444 C35.0552637,59.7711111 35.0552637,57.3911111 36.5139735,55.9177778 L47.3233873,45 L36.5139735,34.0822222 C35.0552637,32.6088889 35.0552637,30.2288889 36.5139735,28.7555556 C37.9726833,27.2822222 40.3290607,27.2822222 41.7877705,28.7555556 L52.5971843,39.6733333 L63.406598,28.7555556 C64.8653078,27.2822222 67.2216852,27.2822222 68.680395,28.7555556 C70.1391049,30.2288889 70.1391049,32.6088889 68.680395,34.0822222 L57.8709813,45 L68.680395,55.9177778 C70.101702,57.3533333 70.101702,59.7711111 68.680395,61.2444444 Z" id="Shape" fill="#C4C4C4" fill-rule="nonzero"></path>
        </g>
    </g>
</svg>