<?xml version="1.0" encoding="UTF-8"?>
<svg width="488px" height="488px" viewBox="0 0 488 488" version="1.1" xmlns="http://www.w3.org/2000/svg" xmlns:xlink="http://www.w3.org/1999/xlink">
    <title>Untitled</title>
    <g id="Page-1" stroke="none" stroke-width="1" fill="none" fill-rule="evenodd">
        <g id="atom" fill="#FFFFFF" fill-rule="nonzero">
            <path d="M244,488 C210.101429,488 178.828036,461.758817 155.943232,414.109683 C134.054036,368.541667 122,308.124217 122,244 C122,179.875783 134.054036,119.463417 155.943232,73.8903167 C178.828036,26.2411833 210.101429,0 244,0 C277.898571,0 309.171964,26.2411833 332.056768,73.8903167 C353.945964,119.463417 366,179.875783 366,244 C366,308.124217 353.945964,368.541667 332.056768,414.109683 C309.171964,461.758817 277.898571,488 244,488 Z M244,16.2666667 C217.765643,16.2666667 191.467018,39.6947333 171.846803,80.5444 C150.941232,124.069933 139.428571,182.119567 139.428571,244 C139.428571,305.880433 150.941232,363.930067 171.846803,407.4556 C191.467018,448.305267 217.765643,471.733333 244,471.733333 C270.234357,471.733333 296.532982,448.305267 316.153197,407.4556 C337.058768,363.930067 348.571429,305.880433 348.571429,244 C348.571429,182.119567 337.058768,124.069933 316.153197,80.5444 C296.532982,39.6947333 270.234357,16.2666667 244,16.2666667 Z" id="Shape"></path>
            <path d="M395.199053,415 C380.482268,414.896007 365.803973,413.579272 351.334772,411.065103 C294.520219,401.556616 229.692618,375.825077 168.789309,338.60946 C123.622376,311.007164 84.0635981,279.122895 54.3879795,246.401977 C24.9683165,213.964013 6.68980836,182.32911 1.52930475,154.918165 C-2.42766224,133.897102 1.30275669,116.086247 12.6203576,101.980263 C33.5161494,75.9403226 77.574303,67.0466003 136.665228,76.934734 C193.479781,86.4432204 258.307382,112.17476 319.210691,149.390377 C364.377624,176.992673 403.936402,208.876942 433.61202,241.59786 C463.031683,274.035824 481.310191,305.670728 486.470695,333.080654 C490.427662,354.102735 486.697243,371.91359 475.379642,386.019574 C460.048437,405.121027 432.252732,415 395.199053,415 L395.199053,415 Z M93.0514568,89.321619 C61.7758427,89.321619 38.3912896,97.0122765 26.5683122,111.74931 C18.2546516,122.109714 15.606871,135.685414 18.696856,152.096765 C28.4329772,203.802085 91.0931234,271.667354 178.331557,324.979814 C237.314654,361.024938 299.845188,385.903543 354.406241,395.034418 C405.924143,403.656382 444.938335,396.810516 461.431687,376.250526 C469.745349,365.890123 472.393129,352.314423 469.303144,335.903073 C459.567023,284.197752 396.906876,216.332483 309.668443,163.020022 C250.685346,126.974899 188.154812,102.096294 133.593759,92.9654191 C120.220371,90.6407007 106.653836,89.421388 93.0514568,89.321619 Z" id="Shape"></path>
            <path d="M92.7974193,415 C55.7379629,415 27.9496337,405.127151 12.6204702,386.019625 C1.30276832,371.913664 -2.42768392,354.102842 1.52931841,333.080797 C6.68986809,305.670918 24.9685395,274.036071 54.388465,241.598163 C84.0643486,208.877301 123.62348,176.993088 168.790815,149.39084 C229.690312,112.175289 294.518492,86.4437935 351.337909,76.9353238 C410.435896,67.0461895 454.483551,75.9398963 475.37953,101.980808 C486.697232,116.086769 490.427684,133.897592 486.470682,154.918619 C481.310132,182.329516 463.03146,213.964363 433.611535,246.402271 C403.935651,279.123132 364.37652,311.007345 319.209185,338.609593 C258.309688,375.825145 193.481508,401.55664 136.662091,411.06511 C122.192768,413.579317 107.514337,414.896048 92.7974193,415 L92.7974193,415 Z M173.560348,156.20616 L178.328792,163.020461 C91.0895796,216.332829 28.4288743,284.193909 18.6926662,335.903211 C15.6026536,352.314533 18.2504579,365.890209 26.5641927,376.250594 C43.0587821,396.810548 82.0689652,403.656402 133.590595,395.034452 C188.152135,385.903594 250.677781,361.025032 309.666851,324.979972 C396.91042,271.667605 459.566769,203.806524 469.302977,152.097223 C472.392989,135.685901 469.745186,122.110225 461.43145,111.74984 C444.936861,91.1898859 405.926678,84.3440319 354.405049,92.965981 C299.843508,102.09684 237.312415,126.975402 178.328792,163.020461 L173.560348,156.20616 Z" id="Shape"></path>
            <ellipse id="Oval" cx="244" cy="244" rx="61" ry="57"></ellipse>
            <g id="Group" transform="translate(9.000000, 24.000000)">
                <ellipse id="Oval" cx="26.1521739" cy="260.48" rx="26.1521739" ry="24.42"></ellipse>
                <ellipse id="Oval" cx="374.847826" cy="382.58" rx="26.1521739" ry="24.42"></ellipse>
                <ellipse id="Oval" cx="296.391305" cy="24.42" rx="26.1521739" ry="24.42"></ellipse>
            </g>
        </g>
    </g>
</svg>