<?xml version="1.0" encoding="UTF-8"?>
<svg width="555px" height="480px" viewBox="0 0 555 480" version="1.1" xmlns="http://www.w3.org/2000/svg" xmlns:xlink="http://www.w3.org/1999/xlink">
    <title>Untitled</title>
    <g id="Page-1" stroke="none" stroke-width="1" fill="none" fill-rule="evenodd">
        <g id="atom" transform="translate(1.000000, 0.000000)" fill="#FFFFFF" fill-rule="nonzero">
            <path d="M276.5,480 C238.016786,480 202.513795,454.189 176.533915,407.321 C151.684295,362.5 138,303.073 138,240 C138,176.927 151.684295,117.505 176.533915,72.679 C202.513795,25.811 238.016786,0 276.5,0 C314.983214,0 350.486205,25.811 376.466085,72.679 C401.315705,117.505 415,176.927 415,240 C415,303.073 401.315705,362.5 376.466085,407.321 C350.486205,454.189 314.983214,480 276.5,480 Z M276.5,16 C246.717554,16 216.862147,39.044 194.588379,79.224 C170.855415,122.036 157.785714,179.134 157.785714,240 C157.785714,300.866 170.855415,357.964 194.588379,400.776 C216.862147,440.956 246.717554,464 276.5,464 C306.282446,464 336.137853,440.956 358.411621,400.776 C382.144585,357.964 395.214286,300.866 395.214286,240 C395.214286,179.134 382.144585,122.036 358.411621,79.224 C336.137853,39.044 306.282446,16 276.5,16 Z" id="Shape"></path>
            <path d="M448.648105,408 C431.940935,407.897831 415.277461,406.604197 398.85136,404.134136 C334.352872,394.792465 260.757603,369.512356 191.617371,332.949645 C140.341796,305.8316 95.4328553,274.506704 61.7437308,242.359837 C28.345179,210.49096 7.59457753,179.411055 1.73613695,152.481004 C-2.75599361,131.828732 1.47894919,114.330348 14.3272092,100.471837 C38.0490713,74.888738 88.0659096,66.1510459 155.14864,75.8657036 C219.647128,85.2073744 293.242397,110.487484 362.382629,147.050195 C413.658204,174.16824 458.567145,205.493136 492.256269,237.640003 C525.654821,269.50888 546.405422,300.588785 552.263863,327.517836 C556.755994,348.171108 552.521051,365.669492 539.672791,379.528003 C522.268103,398.294342 490.713143,408 448.648105,408 L448.648105,408 Z M105.636285,88.0352748 C70.1307723,88.0352748 43.5835542,95.5910085 30.1615676,110.069498 C20.7235184,120.24814 17.7176364,133.58567 21.2255292,149.709102 C32.2784208,200.507312 103.413095,267.181962 202.450169,319.559116 C269.410488,354.971869 340.398021,379.414007 402.338233,388.384691 C460.82372,396.855393 505.114421,390.12963 523.838432,369.930341 C533.276482,359.7517 536.282364,346.41417 532.774471,330.290738 C521.721579,279.492528 450.586905,212.817878 351.549831,160.440723 C284.589512,125.027971 213.601979,100.585833 151.661767,91.6151486 C136.479683,89.3312147 121.07833,88.1332935 105.636285,88.0352748 Z" id="Shape"></path>
            <path d="M105.34789,408 C63.276294,408 31.7297071,398.300359 14.3273371,379.528053 C1.47896239,365.669565 -2.75601822,348.171213 1.73615245,327.517976 C7.59464533,300.588972 28.3454321,269.509122 61.744282,237.6403 C95.4337073,205.493489 140.343049,174.168648 191.619081,147.05065 C260.754985,110.488003 334.350911,85.2079375 398.854921,75.866283 C465.945669,66.1506423 515.950589,74.8883192 539.672663,100.472373 C552.521038,114.330861 556.756018,131.829213 552.263848,152.48145 C546.405355,179.411454 525.654568,210.491304 492.255718,242.360126 C458.566293,274.506937 413.656951,305.831778 362.380919,332.949776 C293.245015,369.512423 219.649089,394.792488 155.145079,404.134143 C138.718839,406.604241 122.055211,407.897872 105.34789,408 L105.34789,408 Z M197.033674,153.746403 L202.44703,160.441155 C103.409072,212.818218 32.273763,279.488753 21.2207727,330.290874 C17.7128486,346.414278 20.7187575,359.751784 30.1568909,369.930408 C48.8823059,390.129661 93.1684564,396.855412 151.658175,388.384725 C213.59894,379.414057 284.580924,354.971961 351.548024,319.559271 C450.590928,267.182208 521.721291,200.511673 532.774281,149.709552 C536.282205,133.586148 533.276297,120.248642 523.838163,110.070018 C505.112748,89.8707651 460.826598,83.1450138 402.336879,91.6157006 C340.396114,100.586369 269.407947,125.028465 202.44703,160.441155 L197.033674,153.746403 Z" id="Shape"></path>
            <ellipse id="Oval" cx="277" cy="240" rx="69" ry="56"></ellipse>
            <g id="Group" transform="translate(10.000000, 24.000000)">
                <ellipse id="Oval" cx="29.673913" cy="256" rx="29.673913" ry="24"></ellipse>
                <ellipse id="Oval" cx="425.326087" cy="376" rx="29.673913" ry="24"></ellipse>
                <ellipse id="Oval" cx="336.304348" cy="24" rx="29.673913" ry="24"></ellipse>
            </g>
        </g>
    </g>
</svg>