<?xml version="1.0" encoding="UTF-8"?>
<svg width="496px" height="375px" viewBox="0 0 496 375" version="1.1" xmlns="http://www.w3.org/2000/svg" xmlns:xlink="http://www.w3.org/1999/xlink">
    <title>Untitled</title>
    <g id="Page-1" stroke="none" stroke-width="1" fill="none" fill-rule="evenodd">
        <g id="binary" transform="translate(248.000000, 187.500000) rotate(-11.000000) translate(-248.000000, -187.500000) translate(24.000000, 40.000000)" fill="#FFFFFF" fill-rule="nonzero">
            <path d="M171.277778,163 L153.722222,163 C136.780426,163 123,176.815313 123,193.8 L123,264.2 C123,281.184687 136.780426,295 153.722222,295 L171.277778,295 C188.219574,295 202,281.184687 202,264.2 L202,193.8 C202,176.815313 188.219574,163 171.277778,163 Z M175.666667,264.2 C175.666667,266.626875 173.698524,268.6 171.277778,268.6 L153.722222,268.6 C151.301476,268.6 149.333333,266.626875 149.333333,264.2 L149.333333,193.8 C149.333333,191.373125 151.301476,189.4 153.722222,189.4 L171.277778,189.4 C173.698524,189.4 175.666667,191.373125 175.666667,193.8 L175.666667,264.2 Z" id="Shape"></path>
            <path d="M65.8333333,268.6 L52.6666667,268.6 L52.6666667,176.2 C52.6666667,168.909063 46.7725258,163 39.5,163 L13.1666667,163 C5.89414084,163 0,168.909063 0,176.2 C0,183.490937 5.89414084,189.4 13.1666667,189.4 L26.3333333,189.4 L26.3333333,268.6 L13.1666667,268.6 C5.89414084,268.6 0,274.509063 0,281.8 C0,289.090937 5.89414084,295 13.1666667,295 L65.8333333,295 C73.1058592,295 79,289.090937 79,281.8 C79,274.509063 73.1058592,268.6 65.8333333,268.6 Z" id="Path"></path>
            <path d="M294.277778,163 L276.722222,163 C259.780426,163 246,176.815313 246,193.8 L246,264.2 C246,281.184687 259.780426,295 276.722222,295 L294.277778,295 C311.219574,295 325,281.184687 325,264.2 L325,193.8 C325,176.815313 311.219574,163 294.277778,163 Z M298.666667,264.2 C298.666667,266.626875 296.698524,268.6 294.277778,268.6 L276.722222,268.6 C274.301476,268.6 272.333333,266.626875 272.333333,264.2 L272.333333,193.8 C272.333333,191.373125 274.301476,189.4 276.722222,189.4 L294.277778,189.4 C296.698524,189.4 298.666667,191.373125 298.666667,193.8 L298.666667,264.2 Z" id="Shape"></path>
            <path d="M434.833333,268.6 L421.666667,268.6 L421.666667,176.2 C421.666667,168.909063 415.772526,163 408.5,163 L382.166667,163 C374.894141,163 369,168.909063 369,176.2 C369,183.490937 374.894141,189.4 382.166667,189.4 L395.333333,189.4 L395.333333,268.6 L382.166667,268.6 C374.894141,268.6 369,274.509063 369,281.8 C369,289.090937 374.894141,295 382.166667,295 L434.833333,295 C442.105859,295 448,289.090937 448,281.8 C448,274.509063 442.105859,268.6 434.833333,268.6 Z" id="Path"></path>
            <path d="M48.2777778,0 L30.7222222,0 C13.7804256,0 0,13.8153127 0,30.8 L0,101.2 C0,118.184687 13.7804256,132 30.7222222,132 L48.2777778,132 C65.2195744,132 79,118.184687 79,101.2 L79,30.8 C79,13.8153127 65.2195744,0 48.2777778,0 Z M52.6666667,101.2 C52.6666667,103.626875 50.6985239,105.6 48.2777778,105.6 L30.7222222,105.6 C28.3014761,105.6 26.3333333,103.626875 26.3333333,101.2 L26.3333333,30.8 C26.3333333,28.3731254 28.3014761,26.4 30.7222222,26.4 L48.2777778,26.4 C50.6985239,26.4 52.6666667,28.3731254 52.6666667,30.8 L52.6666667,101.2 Z" id="Shape"></path>
            <path d="M188.833333,105.6 L175.666667,105.6 L175.666667,13.2 C175.666667,5.90906272 169.772526,0 162.5,0 L136.166667,0 C128.894141,0 123,5.90906272 123,13.2 C123,20.4909373 128.894141,26.4 136.166667,26.4 L149.333333,26.4 L149.333333,105.6 L136.166667,105.6 C128.894141,105.6 123,111.509063 123,118.8 C123,126.090937 128.894141,132 136.166667,132 L188.833333,132 C196.105859,132 202,126.090937 202,118.8 C202,111.509063 196.105859,105.6 188.833333,105.6 Z" id="Path"></path>
            <path d="M417.277778,0 L399.722222,0 C382.780426,0 369,13.8153127 369,30.8 L369,101.2 C369,118.184687 382.780426,132 399.722222,132 L417.277778,132 C434.219574,132 448,118.184687 448,101.2 L448,30.8 C448,13.8153127 434.219574,0 417.277778,0 Z M421.666667,101.2 C421.666667,103.626875 419.698524,105.6 417.277778,105.6 L399.722222,105.6 C397.301476,105.6 395.333333,103.626875 395.333333,101.2 L395.333333,30.8 C395.333333,28.3731254 397.301476,26.4 399.722222,26.4 L417.277778,26.4 C419.698524,26.4 421.666667,28.3731254 421.666667,30.8 L421.666667,101.2 Z" id="Shape"></path>
            <path d="M311.833333,105.6 L298.666667,105.6 L298.666667,13.2 C298.666667,5.90906272 292.772526,0 285.5,0 L259.166667,0 C251.894141,0 246,5.90906272 246,13.2 C246,20.4909373 251.894141,26.4 259.166667,26.4 L272.333333,26.4 L272.333333,105.6 L259.166667,105.6 C251.894141,105.6 246,111.509063 246,118.8 C246,126.090937 251.894141,132 259.166667,132 L311.833333,132 C319.105859,132 325,126.090937 325,118.8 C325,111.509063 319.105859,105.6 311.833333,105.6 Z" id="Path"></path>
        </g>
    </g>
</svg>