<?xml version="1.0" encoding="UTF-8"?>
<svg width="935px" height="933px" viewBox="0 0 935 933" version="1.1" xmlns="http://www.w3.org/2000/svg" xmlns:xlink="http://www.w3.org/1999/xlink">
    <title>Untitled</title>
    <defs>
        <linearGradient x1="50%" y1="0%" x2="50%" y2="100%" id="linearGradient-1">
            <stop stop-color="#FBFBFB" offset="0%"></stop>
            <stop stop-color="#CFCFCF" offset="100%"></stop>
        </linearGradient>
        <filter x="-33.0%" y="-25.7%" width="165.9%" height="151.4%" filterUnits="objectBoundingBox" id="filter-2">
            <feOffset dx="0" dy="0" in="SourceAlpha" result="shadowOffsetOuter1"></feOffset>
            <feGaussianBlur stdDeviation="50.5" in="shadowOffsetOuter1" result="shadowBlurOuter1"></feGaussianBlur>
            <feColorMatrix values="0 0 0 0 0.982895561   0 0 0 0 0.514663658   0 0 0 0 0.163489731  0 0 0 1 0" type="matrix" in="shadowBlurOuter1" result="shadowMatrixOuter1"></feColorMatrix>
            <feMerge>
                <feMergeNode in="shadowMatrixOuter1"></feMergeNode>
                <feMergeNode in="SourceGraphic"></feMergeNode>
            </feMerge>
        </filter>
        <linearGradient x1="50%" y1="0%" x2="50%" y2="100%" id="linearGradient-3">
            <stop stop-color="#F0BD91" offset="0%"></stop>
            <stop stop-color="#FF8947" offset="100%"></stop>
        </linearGradient>
        <linearGradient x1="50%" y1="0%" x2="50%" y2="100%" id="linearGradient-4">
            <stop stop-color="#F0BD91" offset="0%"></stop>
            <stop stop-color="#FF8947" offset="100%"></stop>
        </linearGradient>
        <linearGradient x1="50%" y1="0%" x2="50%" y2="100%" id="linearGradient-5">
            <stop stop-color="#DF9D5E" offset="0%"></stop>
            <stop stop-color="#9A552B" offset="100%"></stop>
        </linearGradient>
        <linearGradient x1="50%" y1="0.835626776%" x2="50%" y2="100%" id="linearGradient-6">
            <stop stop-color="#E4A671" offset="0%"></stop>
            <stop stop-color="#DD8858" offset="100%"></stop>
        </linearGradient>
    </defs>
    <g id="Page-1" stroke="none" stroke-width="1" fill="none" fill-rule="evenodd">
        <rect id="Rectangle" fill="url(#linearGradient-1)" x="-2.27373675e-13" y="0" width="935" height="933" rx="181"></rect>
        <g id="owl" filter="url(#filter-2)" transform="translate(175.000000, 92.000000)" fill-rule="nonzero">
            <g id="Group" transform="translate(132.000000, 655.000000)" fill="#FFA812">
                <path d="M42.8984022,21.6870117 C48.2735811,18.5372318 50.1053784,11.629517 46.9913231,6.21923828 C43.8658198,0.786010375 36.9393358,-1.07861328 31.5183604,2.05969275 C30.0357507,2.91455078 -4.74549935,23.5631107 0.933072083,66.9027096 C1.68296444,72.6170651 6.54867512,76.7766121 12.1471047,76.7766121 C12.6394009,76.7766121 13.1374212,76.7421875 13.6354414,76.6790768 C19.8406531,75.8643803 24.208345,70.1614987 23.3897617,63.9422604 C19.7318912,35.984375 41.8222199,22.3353268 42.8984022,21.6870117 Z" id="Path"></path>
                <path d="M99.4608659,20.2698971 C94.5894297,16.3341068 87.462594,17.1029049 83.5299539,21.9796146 C83.3296007,22.232056 82.2992148,23.5344246 80.833777,25.6744388 C81.3031758,22.6795651 80.5990783,19.5068359 78.5955494,16.9250496 C74.7545007,11.9794922 67.6391129,11.0902096 62.7047084,14.9342045 C61.4167263,15.9382317 31.2607643,39.8685299 31.7645086,75.9160156 C31.8560984,82.129517 36.9049903,87.1094974 43.087306,87.1094974 C43.1445489,87.1094974 43.1960678,87.1094974 43.2533122,87.1037605 C49.5043203,87.0177006 54.5074157,81.8656002 54.4158259,75.5947266 C54.1009868,53.0528568 72.8196641,36.0819088 76.1340726,33.253418 C69.2075886,45.6402592 61.0331949,66.4437252 68.8584026,86.736573 C70.5928859,91.2346199 74.880436,94 79.4255836,94 C80.7822581,94 82.16183,93.7532955 83.5070565,93.2312004 C89.3401861,90.9707031 92.2424388,84.4014896 89.9870392,78.5494388 C83.9707298,62.9439701 96.026246,42.7027592 101.1839,36.2081303 C105.093642,31.3314205 104.326577,24.1999504 99.4608659,20.2698971 L99.4608659,20.2698971 Z" id="Path"></path>
                <path d="M286.704889,2.05969275 C281.283913,-1.07861328 274.323084,0.763061156 271.197581,6.19628906 C268.072077,11.629517 269.892425,18.5544426 275.3134,21.6812748 C276.263645,22.2492683 298.508533,35.8925781 294.833489,63.9422604 C294.02063,70.1614987 298.388322,75.8643802 304.587809,76.6790768 C305.085829,76.7421875 305.58385,76.7766121 306.076145,76.7766121 C311.674576,76.7766121 316.540286,72.6170651 317.295903,66.9027096 C322.96875,23.5631107 288.1875,2.91455078 286.704889,2.05969275 L286.704889,2.05969275 Z" id="Path"></path>
                <path d="M255.524266,14.9399414 C250.60131,11.1016849 243.520269,11.9852291 239.667771,16.9078373 C237.641344,19.4953621 236.937248,22.7025143 237.423819,25.7203373 C235.935484,23.5516354 234.893648,22.232056 234.693297,21.9796146 C230.760657,17.1029049 223.633821,16.3341068 218.762385,20.2698971 C213.890949,24.2056888 213.129608,31.3543698 217.056524,36.2368164 C217.239704,36.4663086 235.443188,59.8630364 228.236211,78.5551758 C225.98081,84.4014896 228.883065,90.9764401 234.716194,93.2369388 C236.061421,93.7532955 237.440993,94 238.797667,94 C243.342815,94 247.630365,91.2403568 249.364847,86.736573 C257.190056,66.4494636 249.015661,45.6459961 242.089178,33.2591549 C245.415035,36.0933842 264.122264,53.0643307 263.807423,75.6004635 C263.721559,81.8656002 268.71893,87.0234375 274.969938,87.1094974 L275.135945,87.1094974 C281.31826,87.1094974 286.372876,82.1352539 286.458741,75.9160156 C286.962485,39.8685299 256.806524,15.9382317 255.524266,14.9399414 L255.524266,14.9399414 Z" id="Path"></path>
            </g>
            <path d="M101.776728,437.940163 C101.776728,437.940163 101.782495,437.940163 101.788262,437.945868 C77.7643162,425.183939 58.1057399,409.438333 42.6568316,391.005706 L42.6164661,391 C42.6164661,391 -59.7995861,582.708461 110,614 C63.8435765,539.870142 101.776728,437.940163 101.776728,437.940163 L101.776728,437.940163 Z" id="Path" fill="url(#linearGradient-3)"></path>
            <path d="M13.29516,484 C6.9573581,537.702238 21.5302685,597.663544 110,614 C101.136302,599.732753 95.3809546,584.442334 91.8573895,569.043309 C39.0500543,553.867212 18.3354153,520.365476 13.29516,484 L13.29516,484 Z" id="Path" fill="#D97F4A"></path>
            <path d="M482.228841,437.940163 C482.223075,437.940163 482.217307,437.940163 482.217307,437.945868 C506.234911,425.183939 525.893019,409.438333 541.341556,391.005706 L541.381922,391 C541.381922,391 643.801291,582.708461 474,614 C520.15532,539.870142 482.228841,437.940163 482.228841,437.940163 L482.228841,437.940163 Z" id="Path" fill="url(#linearGradient-4)"></path>
            <path d="M492.142611,569.041332 C488.619046,584.441034 482.863697,599.732126 474,614 C562.469732,597.662826 577.042643,537.698884 570.70484,484 C565.664586,520.361359 544.949946,553.864568 492.142611,569.041332 L492.142611,569.041332 Z" id="Path" fill="#D97F4A"></path>
            <path d="M482.449543,438 C435.654833,463.091477 372.276032,476.702448 291.500812,476.702448 C210.719872,476.702448 147.341071,463.091477 100.552081,438 C100.552081,438 7.60909192,690 291.500812,690 C575.38681,690 482.449543,438 482.449543,438 Z" id="Path" fill="url(#linearGradient-5)"></path>
            <path d="M291.502858,649.248316 C135.232446,649.248316 93.1457798,572.762387 86.8874128,504 C80.6519269,578.786749 103.05963,690 291.502858,690 C479.940366,690 502.348068,578.786749 496.112583,504 C489.854215,572.762387 447.76755,649.248316 291.502858,649.248316 L291.502858,649.248316 Z" id="Path" fill="#A05528"></path>
            <path d="M292.002858,477 C478.164324,477 571.905164,404.497889 582.844071,285.491466 C594.040164,163.584958 520.216824,62.7684123 520.216824,62.7684123 C536.087956,47.3928167 547.449789,31.879939 555.279624,19.101264 C561.452049,9.02246882 551.616175,-3.17847775 540.477235,0.756942545 C417.114474,44.3668907 292.002858,39.2931726 292.002858,39.2931726 C292.002858,39.2931726 166.885527,44.3668907 43.5227658,0.756942545 C32.3838246,-3.17847775 22.5479522,9.02246882 28.7203767,19.101264 C36.5502122,31.879939 47.9120454,47.3928167 63.7831773,62.7684123 C63.7831773,62.7684123 -10.0401624,163.584958 1.15592877,285.491466 C12.0948374,404.497889 105.835678,477 292.002858,477 L292.002858,477 Z" id="Path" fill="url(#linearGradient-6)"></path>
            <path d="M582.850814,244.183945 C571.911626,362.969406 478.168376,435.333421 292.002126,435.333421 C105.830161,435.333421 12.0869112,362.969406 1.1534379,244.183945 C0.993407968,242.454061 0.856239454,240.724175 0.730500918,239 C-0.31540937,253.821062 -0.292546487,269.161663 1.1534379,284.856234 C12.0869112,403.635984 105.830161,476 292.002126,476 C478.168376,476 571.911626,403.635984 582.850814,284.856234 C584.291083,269.161663 584.313945,253.821062 583.273751,239 C583.148012,240.724175 583.005129,242.454061 582.850814,244.183945 L582.850814,244.183945 Z" id="Path" fill="#D97F4A"></path>
            <path d="M437.675366,110.119013 C344.746254,76.5036219 291.500848,158.139372 291.500848,158.139372 C291.500848,158.139372 238.24972,76.5036219 145.320608,110.119013 C52.391496,143.734406 48.5690439,283.241136 86.7478022,344.022786 C119.433214,396.055303 205.089364,413.091288 260.715219,352.326758 C257.161711,343.497724 255.101706,333.647102 255.101706,324.321541 C255.101706,298.051313 271.398634,285.889275 291.500848,285.889275 C311.597341,285.889275 327.894269,298.051313 327.894269,324.321541 C327.894269,333.647102 325.834264,343.497724 322.280756,352.326758 C377.906611,413.091288 463.562761,396.055303 496.248173,344.022786 C534.432653,283.246843 530.610201,143.734406 437.675366,110.119013 Z" id="Path" fill="#FFE9C8"></path>
            <path d="M255.868532,316.63251 C200.442974,371.276063 119.240339,353.648371 87.6590036,302.950117 C76.1588121,284.49093 68.4901182,258.794869 65.9357874,231 C62.013065,273.360365 70.6453356,316.489149 87.6590036,343.796589 C120.226722,396.083286 205.574442,413.194878 261,352.140211 C257.459287,343.26902 255.4067,333.377098 255.4067,324.001275 C255.4067,321.409305 255.566346,318.954961 255.868532,316.63251 Z" id="Path" fill="#FFDCA7"></path>
            <path d="M496.340996,302.950967 C464.759661,353.649821 383.557026,371.277721 328.131468,316.633522 C328.433654,318.956 328.5933,321.410373 328.5933,324.002374 C328.5933,333.372574 326.540713,343.270347 323,352.141643 C378.425558,413.197032 463.773278,396.079501 496.340996,343.797922 C513.354664,316.490159 521.986935,273.360866 518.064213,231 C515.509882,258.795198 507.841186,284.491562 496.340996,302.950967 Z" id="Path" fill="#FFDCA7"></path>
            <path d="M328,324.376124 C328,298.144272 311.656631,286 291.502869,286 C271.343369,286 255,298.144272 255,324.376124 C255,350.607979 271.343369,381 291.502869,381 C311.656631,381 328,350.607979 328,324.376124 L328,324.376124 Z" id="Path" fill="#FFA812"></path>
            <path d="M291.502869,340.979466 C276.921233,340.979466 264.348086,324.917936 258.494772,306 C256.256741,311.200273 255,317.442904 255,324.779722 C255,351.293627 271.343369,382 291.502869,382 C311.656631,382 328,351.287869 328,324.779722 C328,317.442904 326.743259,311.200273 324.505228,306 C318.657653,324.917936 306.078767,340.979466 291.502869,340.979466 L291.502869,340.979466 Z" id="Path" fill="#FF9A00"></path>
            <path d="M173.002888,202 C155.054698,202 141,220.224686 141,243.5 C141,266.76958 155.054698,285 173.002888,285 C190.945302,285 205,266.76958 205,243.5 C205,220.224686 190.945302,202 173.002888,202 Z" id="Path" fill="#433F43"></path>
            <path d="M409,202 C391.053429,202 377,220.224686 377,243.5 C377,266.76958 391.053429,285 409,285 C426.940795,285 441,266.76958 441,243.5 C441,220.224686 426.940795,202 409,202 Z" id="Path" fill="#433F43"></path>
        </g>
    </g>
</svg>