<?xml version="1.0" encoding="UTF-8"?>
<svg width="440px" height="440px" viewBox="0 0 440 440" version="1.1" xmlns="http://www.w3.org/2000/svg" xmlns:xlink="http://www.w3.org/1999/xlink">
    <title>Untitled</title>
    <g id="Page-1" stroke="none" stroke-width="1" fill="none" fill-rule="evenodd">
        <g id="magnet" transform="translate(200.027652, 238.131728) rotate(45.000000) translate(-200.027652, -238.131728) translate(41.027652, 23.631728)" fill-rule="nonzero">
            <path d="M308.180195,185.814755 L308.180195,269.385944 C308.180195,352.464059 241.021488,419.814755 158.180195,419.814755 C75.3389013,419.814755 8.18019485,352.464895 8.18019485,269.38678 L8.18019485,185.814755 L91.5131578,185.814755 L91.5131578,269.38678 C91.5131578,306.307229 121.36249,336.2444 158.180195,336.2444 C194.997066,336.2444 224.847232,306.308901 224.847232,269.38678 L224.847232,185.814755 L308.180195,185.814755 L308.180195,185.814755 Z" id="Path" fill="#ED4C74"></path>
            <g id="Group" transform="translate(8.533748, 109.104816)" fill="#FFFFFF">
                <rect id="Rectangle" x="216.665833" y="0" width="83.3325" height="76.999163"></rect>
                <rect id="Rectangle" x="0" y="0" width="83.3325" height="76.999163"></rect>
            </g>
            <path d="M50.7146827,269.580736 C50.7146827,264.888736 46.9066827,261.080736 42.2146827,261.080736 C37.5226827,261.080736 33.7146827,264.888736 33.7146827,269.580736 C33.7146827,274.272736 37.5226827,278.080736 42.2146827,278.080736 C46.9066827,278.080736 50.7146827,274.272736 50.7146827,269.580736 Z" id="Path" fill="#000000"></path>
            <path d="M0.387301628,109.472889 L0.387301628,269.636546 C0.387301628,357.030467 71.4899416,428.130988 158.887302,428.130988 C246.284662,428.130988 317.387302,357.029633 317.387302,269.635712 L317.387302,109.472889 C317.387302,104.865657 313.651687,101.130988 309.045152,101.130988 L225.624495,101.130988 C221.01796,101.130988 217.282346,104.865657 217.282346,109.472889 L217.282346,269.636546 C217.282346,301.834614 191.086329,328.02985 158.887302,328.02985 C126.749172,328.02985 100.492257,302.029814 100.492257,269.636546 L100.492257,109.472889 C100.492257,104.865657 96.756643,101.130988 92.1501083,101.130988 L8.7294508,101.130988 C4.12291603,101.130988 0.387301628,104.865657 0.387301628,109.472889 Z M300.703003,177.875639 L233.96581,177.875639 L233.96581,117.813955 L300.703003,117.813955 L300.703003,177.875639 Z M158.887302,344.712817 C200.286051,344.712817 233.96581,311.033227 233.96581,269.636546 L233.96581,194.560275 L300.703003,194.560275 L300.703003,269.636546 C300.703003,347.831019 237.084105,411.448021 158.887302,411.448021 C80.690498,411.448021 17.0716,347.831019 17.0716,269.636546 L17.0716,194.560275 L83.8087933,194.560275 L83.8087933,269.636546 C83.8087933,310.955648 117.239122,344.712817 158.887302,344.712817 Z M83.8087933,117.814789 L83.8087933,177.876474 L17.0716,177.876474 L17.0716,117.814789 L83.8087933,117.814789 Z" id="Shape" fill="#000000"></path>
            <path d="M54.6023138,299.665571 C53.3015793,295.229514 48.6796083,292.69283 44.2762272,294.005976 C39.8745084,295.315773 37.359478,299.973758 38.6593814,304.409815 C46.1221897,329.868778 61.8614928,352.791056 82.9774421,368.95331 C86.6311347,371.750446 91.8465398,371.034413 94.6233794,367.350401 C97.400219,363.668063 96.6879318,358.413802 93.0325769,355.615829 C74.7167391,341.597487 61.0694161,321.726097 54.6023138,299.665571 Z" id="Path" fill="#000000"></path>
            <path d="M45.5873623,1.62438422 C41.4715478,-0.426423525 36.4657374,1.23596737 34.4074135,5.33592296 L17.7408232,38.5339439 C16.4491624,41.1067905 16.5874951,44.1618384 18.1058215,46.6085325 C19.6241479,49.0552267 22.3066356,50.5449878 25.1949557,50.5449878 L45.0440314,50.5449878 L34.4074135,71.7319648 C32.3490896,75.8319204 34.0174153,80.8174332 38.1348964,82.867411 C42.2648775,84.9240284 47.2640213,83.2417186 49.3148452,79.1558722 L65.9814355,45.9578513 C67.2730963,43.3850047 67.1347636,40.3299568 65.6164372,37.8832627 C64.0981108,35.4365685 61.4156231,33.9468073 58.527303,33.9468073 L38.6782273,33.9468073 L49.3148452,12.7598304 C51.3723358,8.6598748 49.7040101,3.67436201 45.5873623,1.62438422 Z" id="Path" fill="#000000"></path>
            <path d="M278.9326,1.62438422 C274.816786,-0.426423525 269.810975,1.23596737 267.752651,5.33592296 L251.086061,38.5339439 C249.7944,41.1067905 249.932733,44.1618384 251.451059,46.6085325 C252.969386,49.0552267 255.651873,50.5449878 258.540193,50.5449878 L278.389269,50.5449878 L267.752651,71.7319648 C265.694327,75.8319204 267.362653,80.8174332 271.480134,82.867411 C275.610115,84.9240284 280.609259,83.2417186 282.660083,79.1558722 L299.326673,45.9578513 C300.618334,43.3850047 300.480001,40.3299568 298.961675,37.8832627 C297.443349,35.4365685 294.760861,33.9468073 291.872541,33.9468073 L272.023465,33.9468073 L282.660083,12.7598304 C284.717574,8.6598748 283.049248,3.67436201 278.9326,1.62438422 Z" id="Path" fill="#000000"></path>
        </g>
    </g>
</svg>