<?xml version="1.0" standalone="no"?>
<!DOCTYPE svg PUBLIC "-//W3C//DTD SVG 20010904//EN"
 "http://www.w3.org/TR/2001/REC-SVG-20010904/DTD/svg10.dtd">
<svg version="1.0" xmlns="http://www.w3.org/2000/svg"
 width="220.000000pt" height="272.000000pt" viewBox="0 0 220.000000 272.000000"
 preserveAspectRatio="xMidYMid meet">

<g transform="translate(0.000000,272.000000) scale(0.100000,-0.100000)"
fill="#000000" stroke="none">
<path d="M911 2526 l-433 -82 -14 -39 c-7 -22 -44 -119 -81 -215 l-68 -175 -3
-731 c-2 -580 0 -733 10 -742 7 -5 168 -69 358 -142 190 -73 360 -138 378
-146 17 -7 32 -10 32 -5 0 4 -116 52 -257 106 -430 163 -517 199 -505 203 7 2
12 11 12 20 0 15 -2 15 -10 2 -6 -10 -10 230 -10 688 l0 703 22 -7 c32 -10
720 -274 730 -280 4 -3 8 -1 8 4 0 4 -87 41 -192 82 -396 150 -398 151 -398
169 0 12 -2 13 -8 3 -6 -9 -25 -6 -80 14 -40 15 -72 32 -72 39 0 11 128 362
152 415 11 25 24 28 437 104 234 43 430 82 436 87 12 12 51 18 -444 -75z"/>
<path d="M1371 2584 c1 -18 3 -22 6 -11 3 13 10 16 26 11 57 -18 723 -276 730
-284 8 -7 -136 -415 -154 -434 -10 -12 -568 -117 -591 -112 -9 2 -18 1 -20 -4
-2 -4 -62 -18 -135 -31 -73 -13 -132 -27 -133 -31 0 -5 0 -335 0 -734 0 -558
3 -723 12 -718 6 4 207 44 446 88 l434 81 84 225 84 225 0 728 c0 438 -4 726
-9 723 -5 -4 -11 -2 -13 3 -1 5 -167 72 -368 149 -201 77 -373 143 -382 147
-15 6 -18 2 -17 -21z m779 -1019 c0 -665 -1 -705 -17 -705 -14 0 -15 -2 -5 -9
11 -7 -1 -48 -58 -202 -39 -107 -74 -196 -76 -198 -2 -2 -4 98 -4 222 0 209 1
227 18 227 16 1 16 1 0 11 -17 9 -18 43 -18 472 l0 462 77 212 c43 117 79 213
81 213 1 0 2 -317 2 -705z m-170 -433 l0 -718 -367 -68 c-203 -37 -398 -74
-435 -81 l-68 -13 0 419 c0 392 1 419 18 420 16 1 16 2 0 6 -17 4 -18 27 -18
296 l0 292 125 23 c69 13 130 20 134 17 5 -3 11 -1 13 3 1 5 136 34 298 64
162 31 296 56 298 57 1 0 2 -322 2 -717z"/>
<path d="M2035 890 c3 -5 11 -10 16 -10 6 0 7 5 4 10 -3 6 -11 10 -16 10 -6 0
-7 -4 -4 -10z"/>
<path d="M2080 870 c20 -13 33 -13 25 0 -3 6 -14 10 -23 10 -15 0 -15 -2 -2
-10z"/>
<path d="M1920 1771 c0 -5 -3 -17 -7 -27 -4 -11 -3 -15 4 -11 14 9 24 47 12
47 -5 0 -9 -4 -9 -9z"/>
<path d="M1786 1705 c-21 -36 -35 -69 -31 -73 3 -4 11 1 16 11 13 22 79 24 79
2 0 -8 5 -15 11 -15 6 0 8 11 5 28 -3 15 -8 46 -11 70 -4 23 -12 42 -19 42 -6
0 -29 -29 -50 -65z m54 5 c0 -23 -4 -30 -20 -30 -24 0 -25 8 -4 38 20 29 24
28 24 -8z"/>
<path d="M1372 1690 c0 -14 2 -19 5 -12 2 6 2 18 0 25 -3 6 -5 1 -5 -13z"/>
<path d="M1372 1640 c0 -14 2 -19 5 -12 2 6 2 18 0 25 -3 6 -5 1 -5 -13z"/>
<path d="M1900 1625 c0 -5 -3 -21 -6 -35 -4 -19 -2 -17 10 8 8 17 22 32 31 32
13 0 15 -7 11 -32 -6 -30 -5 -31 4 -9 6 14 8 31 6 38 -6 15 -56 14 -56 -2z"/>
<path d="M1371 1594 c0 -11 3 -14 6 -6 3 7 2 16 -1 19 -3 4 -6 -2 -5 -13z"/>
<path d="M1371 1544 c0 -11 3 -14 6 -6 3 7 2 16 -1 19 -3 4 -6 -2 -5 -13z"/>
<path d="M1371 1494 c0 -11 3 -14 6 -6 3 7 2 16 -1 19 -3 4 -6 -2 -5 -13z"/>
<path d="M1371 1444 c0 -11 3 -14 6 -6 3 7 2 16 -1 19 -3 4 -6 -2 -5 -13z"/>
<path d="M1372 1400 c0 -14 2 -19 5 -12 2 6 2 18 0 25 -3 6 -5 1 -5 -13z"/>
<path d="M1372 1350 c0 -14 2 -19 5 -12 2 6 2 18 0 25 -3 6 -5 1 -5 -13z"/>
<path d="M1372 1300 c0 -14 2 -19 5 -12 2 6 2 18 0 25 -3 6 -5 1 -5 -13z"/>
<path d="M1372 1250 c0 -14 2 -19 5 -12 2 6 2 18 0 25 -3 6 -5 1 -5 -13z"/>
<path d="M1372 1200 c0 -14 2 -19 5 -12 2 6 2 18 0 25 -3 6 -5 1 -5 -13z"/>
<path d="M1370 1158 c0 -9 -8 -18 -17 -21 -10 -2 2 -4 26 -4 36 -1 41 1 25 10
-10 6 -22 15 -26 21 -5 7 -8 5 -8 -6z"/>
<path d="M1310 1130 c-13 -8 -12 -10 3 -10 9 0 17 5 17 10 0 12 -1 12 -20 0z"/>
<path d="M1255 1120 c-3 -5 -2 -10 4 -10 5 0 13 5 16 10 3 6 2 10 -4 10 -5 0
-13 -4 -16 -10z"/>
<path d="M1435 1120 c3 -5 14 -10 23 -10 15 0 15 2 2 10 -20 13 -33 13 -25 0z"/>
<path d="M1205 1110 c-8 -13 5 -13 25 0 13 8 13 10 -2 10 -9 0 -20 -4 -23 -10z"/>
<path d="M1150 1101 c0 -5 9 -7 20 -4 11 3 20 7 20 9 0 2 -9 4 -20 4 -11 0
-20 -4 -20 -9z"/>
<path d="M1480 1106 c0 -2 7 -7 16 -10 8 -3 12 -2 9 4 -6 10 -25 14 -25 6z"/>
<path d="M1530 1086 c0 -2 7 -7 16 -10 8 -3 12 -2 9 4 -6 10 -25 14 -25 6z"/>
<path d="M1570 1070 c0 -6 7 -10 15 -10 8 0 15 2 15 4 0 2 -7 6 -15 10 -8 3
-15 1 -15 -4z"/>
<path d="M1620 1050 c0 -6 7 -10 15 -10 8 0 15 2 15 4 0 2 -7 6 -15 10 -8 3
-15 1 -15 -4z"/>
<path d="M1665 1030 c3 -5 14 -10 23 -10 15 0 15 2 2 10 -20 13 -33 13 -25 0z"/>
<path d="M1710 1016 c0 -2 7 -6 15 -10 8 -3 15 -1 15 4 0 6 -7 10 -15 10 -8 0
-15 -2 -15 -4z"/>
<path d="M1760 996 c0 -2 7 -6 15 -10 8 -3 15 -1 15 4 0 6 -7 10 -15 10 -8 0
-15 -2 -15 -4z"/>
<path d="M1808 978 c5 -5 16 -8 23 -6 8 3 3 7 -10 11 -17 4 -21 3 -13 -5z"/>
<path d="M1857 959 c7 -7 15 -10 18 -7 3 3 -2 9 -12 12 -14 6 -15 5 -6 -5z"/>
<path d="M1900 940 c20 -13 33 -13 25 0 -3 6 -14 10 -23 10 -15 0 -15 -2 -2
-10z"/>
<path d="M1940 926 c0 -2 7 -6 15 -10 8 -3 15 -1 15 4 0 6 -7 10 -15 10 -8 0
-15 -2 -15 -4z"/>
<path d="M1371 2524 c0 -11 3 -14 6 -6 3 7 2 16 -1 19 -3 4 -6 -2 -5 -13z"/>
<path d="M1371 2474 c0 -11 3 -14 6 -6 3 7 2 16 -1 19 -3 4 -6 -2 -5 -13z"/>
<path d="M1371 2424 c0 -11 3 -14 6 -6 3 7 2 16 -1 19 -3 4 -6 -2 -5 -13z"/>
<path d="M1372 2380 c0 -14 2 -19 5 -12 2 6 2 18 0 25 -3 6 -5 1 -5 -13z"/>
<path d="M481 2374 c0 -11 3 -14 6 -6 3 7 2 16 -1 19 -3 4 -6 -2 -5 -13z"/>
<path d="M1372 2330 c0 -14 2 -19 5 -12 2 6 2 18 0 25 -3 6 -5 1 -5 -13z"/>
<path d="M481 2324 c0 -11 3 -14 6 -6 3 7 2 16 -1 19 -3 4 -6 -2 -5 -13z"/>
<path d="M1372 2280 c0 -14 2 -19 5 -12 2 6 2 18 0 25 -3 6 -5 1 -5 -13z"/>
<path d="M481 2274 c0 -11 3 -14 6 -6 3 7 2 16 -1 19 -3 4 -6 -2 -5 -13z"/>
<path d="M482 2230 c0 -14 2 -19 5 -12 2 6 2 18 0 25 -3 6 -5 1 -5 -13z"/>
<path d="M1372 2230 c0 -14 2 -19 5 -12 2 6 2 18 0 25 -3 6 -5 1 -5 -13z"/>
<path d="M482 2180 c0 -14 2 -19 5 -12 2 6 2 18 0 25 -3 6 -5 1 -5 -13z"/>
<path d="M1372 2180 c0 -14 2 -19 5 -12 2 6 2 18 0 25 -3 6 -5 1 -5 -13z"/>
<path d="M482 2130 c0 -14 2 -19 5 -12 2 6 2 18 0 25 -3 6 -5 1 -5 -13z"/>
<path d="M1372 2130 c0 -14 2 -19 5 -12 2 6 2 18 0 25 -3 6 -5 1 -5 -13z"/>
<path d="M482 2080 c0 -14 2 -19 5 -12 2 6 2 18 0 25 -3 6 -5 1 -5 -13z"/>
<path d="M1371 2084 c0 -11 3 -14 6 -6 3 7 2 16 -1 19 -3 4 -6 -2 -5 -13z"/>
<path d="M250 2051 c0 -5 -3 -17 -7 -27 -4 -11 -3 -15 4 -11 14 9 24 47 12 47
-5 0 -9 -4 -9 -9z"/>
<path d="M116 1985 c-21 -36 -35 -69 -31 -73 3 -4 11 1 16 11 13 22 79 24 79
2 0 -8 5 -15 11 -15 6 0 8 11 5 28 -3 15 -8 46 -11 70 -4 23 -12 42 -19 42 -6
0 -29 -29 -50 -65z m54 5 c0 -23 -4 -30 -20 -30 -24 0 -25 8 -4 38 20 29 24
28 24 -8z"/>
<path d="M482 2030 c0 -14 2 -19 5 -12 2 6 2 18 0 25 -3 6 -5 1 -5 -13z"/>
<path d="M1371 2034 c0 -11 3 -14 6 -6 3 7 2 16 -1 19 -3 4 -6 -2 -5 -13z"/>
<path d="M482 1980 c0 -14 2 -19 5 -12 2 6 2 18 0 25 -3 6 -5 1 -5 -13z"/>
<path d="M1371 1984 c0 -11 3 -14 6 -6 3 7 2 16 -1 19 -3 4 -6 -2 -5 -13z"/>
<path d="M1371 1934 c0 -11 3 -14 6 -6 3 7 2 16 -1 19 -3 4 -6 -2 -5 -13z"/>
<path d="M235 1919 c-4 -6 -4 -13 -1 -16 3 -4 6 -1 6 5 0 7 9 12 20 12 28 0
25 -24 -5 -44 -34 -23 -31 -36 8 -35 l32 2 -29 4 -29 5 28 22 c19 15 26 28 22
39 -7 19 -42 23 -52 6z"/>
<path d="M1372 1890 c0 -14 2 -19 5 -12 2 6 2 18 0 25 -3 6 -5 1 -5 -13z"/>
<path d="M481 1884 c0 -11 3 -14 6 -6 3 7 2 16 -1 19 -3 4 -6 -2 -5 -13z"/>
<path d="M1372 1840 c0 -14 2 -19 5 -12 2 6 2 18 0 25 -3 6 -5 1 -5 -13z"/>
<path d="M481 1834 c0 -11 3 -14 6 -6 3 7 2 16 -1 19 -3 4 -6 -2 -5 -13z"/>
<path d="M1372 1790 c0 -14 2 -19 5 -12 2 6 2 18 0 25 -3 6 -5 1 -5 -13z"/>
<path d="M481 1784 c0 -11 3 -14 6 -6 3 7 2 16 -1 19 -3 4 -6 -2 -5 -13z"/>
<path d="M482 1740 c0 -14 2 -19 5 -12 2 6 2 18 0 25 -3 6 -5 1 -5 -13z"/>
<path d="M482 1690 c0 -14 2 -19 5 -12 2 6 2 18 0 25 -3 6 -5 1 -5 -13z"/>
<path d="M482 1640 c0 -14 2 -19 5 -12 2 6 2 18 0 25 -3 6 -5 1 -5 -13z"/>
<path d="M1040 1651 c0 -5 -3 -17 -7 -27 -4 -11 -3 -15 4 -11 14 9 24 47 12
47 -5 0 -9 -4 -9 -9z"/>
<path d="M906 1585 c-21 -36 -35 -69 -31 -73 3 -4 11 1 16 11 13 22 79 24 79
2 0 -8 5 -15 11 -15 6 0 8 11 5 28 -3 15 -8 46 -11 70 -4 23 -12 42 -19 42 -6
0 -29 -29 -50 -65z m54 5 c0 -23 -4 -30 -20 -30 -24 0 -25 8 -4 38 20 29 24
28 24 -8z"/>
<path d="M482 1590 c0 -14 2 -19 5 -12 2 6 2 18 0 25 -3 6 -5 1 -5 -13z"/>
<path d="M482 1540 c0 -14 2 -19 5 -12 2 6 2 18 0 25 -3 6 -5 1 -5 -13z"/>
<path d="M1030 1510 c-10 -6 -11 -10 -2 -10 7 0 12 -13 12 -29 0 -16 -6 -32
-12 -34 -7 -3 1 -6 17 -6 17 0 25 3 18 7 -6 4 -13 24 -15 44 -2 31 -6 36 -18
28z"/>
<path d="M482 1490 c0 -14 2 -19 5 -12 2 6 2 18 0 25 -3 6 -5 1 -5 -13z"/>
<path d="M481 1444 c0 -11 3 -14 6 -6 3 7 2 16 -1 19 -3 4 -6 -2 -5 -13z"/>
<path d="M177 1338 c-9 -40 -13 -75 -11 -78 8 -7 24 23 24 46 0 28 27 51 41
37 7 -7 7 -22 0 -47 -7 -28 -7 -36 2 -33 13 4 30 75 22 95 -3 10 -13 12 -30 8
-23 -6 -25 -4 -19 19 3 14 2 25 -3 25 -6 0 -17 -33 -26 -72z"/>
<path d="M481 1394 c0 -11 3 -14 6 -6 3 7 2 16 -1 19 -3 4 -6 -2 -5 -13z"/>
<path d="M481 1344 c0 -11 3 -14 6 -6 3 7 2 16 -1 19 -3 4 -6 -2 -5 -13z"/>
<path d="M481 1294 c0 -11 3 -14 6 -6 3 7 2 16 -1 19 -3 4 -6 -2 -5 -13z"/>
<path d="M482 1250 c0 -14 2 -19 5 -12 2 6 2 18 0 25 -3 6 -5 1 -5 -13z"/>
<path d="M482 1200 c0 -14 2 -19 5 -12 2 6 2 18 0 25 -3 6 -5 1 -5 -13z"/>
<path d="M482 1150 c0 -14 2 -19 5 -12 2 6 2 18 0 25 -3 6 -5 1 -5 -13z"/>
<path d="M482 1100 c0 -14 2 -19 5 -12 2 6 2 18 0 25 -3 6 -5 1 -5 -13z"/>
<path d="M1058 1083 c6 -2 18 -2 25 0 6 3 1 5 -13 5 -14 0 -19 -2 -12 -5z"/>
<path d="M970 1070 c-13 -8 -12 -10 3 -10 9 0 17 5 17 10 0 12 -1 12 -20 0z"/>
<path d="M1018 1073 c7 -3 16 -2 19 1 4 3 -2 6 -13 5 -11 0 -14 -3 -6 -6z"/>
<path d="M482 1050 c0 -14 2 -19 5 -12 2 6 2 18 0 25 -3 6 -5 1 -5 -13z"/>
<path d="M920 1060 c-13 -8 -13 -10 2 -10 9 0 20 5 23 10 8 13 -5 13 -25 0z"/>
<path d="M865 1050 c-8 -13 5 -13 25 0 13 8 13 10 -2 10 -9 0 -20 -4 -23 -10z"/>
<path d="M820 1040 c0 -5 7 -7 15 -4 8 4 15 8 15 10 0 2 -7 4 -15 4 -8 0 -15
-4 -15 -10z"/>
<path d="M778 1033 c7 -3 16 -2 19 1 4 3 -2 6 -13 5 -11 0 -14 -3 -6 -6z"/>
<path d="M728 1023 c6 -2 18 -2 25 0 6 3 1 5 -13 5 -14 0 -19 -2 -12 -5z"/>
<path d="M477 1000 c-8 -30 -4 -35 20 -21 10 6 13 11 6 11 -6 0 -13 8 -15 18
-3 13 -5 11 -11 -8z"/>
<path d="M635 1010 c-19 -8 -19 -9 3 -9 12 -1 22 4 22 9 0 6 -1 10 -2 9 -2 0
-12 -4 -23 -9z"/>
<path d="M678 1013 c6 -2 18 -2 25 0 6 3 1 5 -13 5 -14 0 -19 -2 -12 -5z"/>
<path d="M580 1000 c-13 -8 -13 -10 2 -10 9 0 20 5 23 10 8 13 -5 13 -25 0z"/>
<path d="M530 990 c0 -5 7 -7 15 -4 8 4 15 8 15 10 0 2 -7 4 -15 4 -8 0 -15
-4 -15 -10z"/>
<path d="M456 945 c-3 -8 -1 -15 4 -15 6 0 10 7 10 15 0 8 -2 15 -4 15 -2 0
-6 -7 -10 -15z"/>
<path d="M447 913 c-4 -3 -7 -13 -7 -22 1 -13 3 -13 11 2 11 19 8 33 -4 20z"/>
<path d="M426 853 c-6 -14 -5 -15 5 -6 7 7 10 15 7 18 -3 3 -9 -2 -12 -12z"/>
<path d="M410 805 c0 -8 2 -15 4 -15 2 0 6 7 10 15 3 8 1 15 -4 15 -6 0 -10
-7 -10 -15z"/>
<path d="M397 773 c-4 -3 -7 -13 -7 -22 1 -13 3 -13 11 2 11 19 8 33 -4 20z"/>
<path d="M376 715 c-3 -8 -1 -15 4 -15 6 0 10 7 10 15 0 8 -2 15 -4 15 -2 0
-6 -7 -10 -15z"/>
<path d="M361 664 c0 -11 3 -14 6 -6 3 7 2 16 -1 19 -3 4 -6 -2 -5 -13z"/>
<path d="M347 633 c-4 -3 -7 -11 -7 -17 0 -6 5 -5 12 2 6 6 9 14 7 17 -3 3 -9
2 -12 -2z"/>
<path d="M206 455 c-21 -36 -35 -69 -31 -73 3 -4 11 1 16 11 13 22 79 24 79 2
0 -8 5 -15 11 -15 6 0 8 11 5 28 -3 15 -8 46 -11 70 -4 23 -12 42 -19 42 -6 0
-29 -29 -50 -65z m54 5 c0 -23 -4 -30 -20 -30 -24 0 -25 8 -4 38 20 29 24 28
24 -8z"/>
<path d="M325 389 c-4 -6 -4 -13 -1 -16 3 -4 6 -1 6 5 0 7 9 12 20 12 28 0 25
-24 -5 -44 -34 -23 -31 -36 8 -35 l32 2 -29 4 -29 5 28 22 c19 15 26 28 22 39
-7 19 -42 23 -52 6z"/>
<path d="M1966 305 c-21 -36 -35 -69 -31 -73 3 -4 11 1 16 11 13 22 79 24 79
2 0 -8 5 -15 11 -15 6 0 8 11 5 28 -3 15 -8 46 -11 70 -4 23 -12 42 -19 42 -6
0 -29 -29 -50 -65z m54 5 c0 -23 -4 -30 -20 -30 -24 0 -25 8 -4 38 20 29 24
28 24 -8z"/>
<path d="M649 337 c-23 -18 -41 -56 -35 -73 4 -10 17 -14 38 -12 29 3 35 8 45
42 7 22 10 43 7 48 -7 12 -37 9 -55 -5z m30 -37 c-10 -29 -32 -40 -43 -22 -7
12 23 52 39 52 11 0 12 -6 4 -30z"/>
<path d="M2080 215 c0 -5 -3 -21 -6 -35 -4 -19 -2 -17 10 8 8 17 22 32 31 32
13 0 15 -7 11 -32 -6 -30 -5 -31 4 -9 6 14 8 31 6 38 -6 15 -56 14 -56 -2z"/>
<path d="M1066 125 c-21 -36 -35 -69 -31 -73 3 -4 11 1 16 11 13 22 79 24 79
2 0 -8 5 -15 11 -15 6 0 8 11 5 27 -3 16 -8 47 -11 71 -4 23 -12 42 -19 42 -6
0 -29 -29 -50 -65z m54 5 c0 -23 -4 -30 -20 -30 -24 0 -25 8 -4 38 20 29 24
28 24 -8z"/>
<path d="M1200 70 c-9 -6 -10 -10 -3 -10 6 0 14 -15 16 -32 3 -29 4 -27 5 10
1 23 1 42 0 42 -2 0 -10 -5 -18 -10z"/>
</g>
</svg>
