<?xml version="1.0" encoding="UTF-8"?>
<svg width="488px" height="488px" viewBox="0 0 488 488" version="1.1" xmlns="http://www.w3.org/2000/svg" xmlns:xlink="http://www.w3.org/1999/xlink">
    <title>Untitled</title>
    <g id="Page-1" stroke="none" stroke-width="1" fill="none" fill-rule="evenodd">
        <g id="cpu" transform="translate(243.000000, 244.000000) rotate(-10.000000) translate(-243.000000, -244.000000) translate(16.000000, 17.000000)" fill="#FFFFFF" fill-rule="nonzero">
            <path d="M324.371763,116 L128.628237,116 C121.682572,116 116,121.682572 116,128.628237 L116,324.371763 C116,331.317428 121.682572,337 128.628237,337 L324.371763,337 C331.317428,337 337,331.317428 337,324.371763 L337,128.629137 C337,121.683472 331.317428,116 324.371763,116 Z M311.742626,311.743526 L141.256474,311.743526 L141.256474,264.386062 L166.513848,264.386062 C173.459514,264.386062 179.142085,258.70349 179.142085,251.757824 C179.142085,244.812159 173.459514,239.129587 166.513848,239.129587 L141.256474,239.129587 L141.256474,213.872213 L191.771223,213.872213 C198.716888,213.872213 204.39946,208.189641 204.39946,201.243976 C204.39946,194.298311 198.716888,188.615739 191.771223,188.615739 L141.256474,188.615739 L141.256474,141.258275 L311.742626,141.258275 L311.742626,311.743526 Z" id="Shape"></path>
            <path d="M454,194.211301 C454,187.275247 448.325292,181.600539 441.389239,181.600539 L401.033363,181.600539 L401.033363,141.875787 L441.389239,141.875787 C448.325292,141.875787 454,136.201079 454,129.265025 C454,122.328971 448.325292,116.654264 441.389239,116.654264 L401.033363,116.654264 L401.033363,89.5393734 C401.033363,69.3614358 384.638564,52.9675357 364.461526,52.9675357 L337.347534,52.9675357 L337.347534,12.6107615 C337.347534,5.67470781 331.672827,0 324.736773,0 C317.800719,0 312.126011,5.67470781 312.126011,12.6107615 L312.126011,52.9666367 L271.769237,52.9666367 L271.769237,12.6107615 C271.769237,5.67470781 266.094529,0 259.158476,0 C252.222422,0 246.547714,5.67470781 246.547714,12.6107615 L246.547714,52.9666367 L206.191839,52.9666367 L206.191839,12.6107615 C206.191839,5.67470781 200.517131,0 193.581077,0 C186.645024,0 180.970316,5.67470781 180.970316,12.6107615 L180.970316,52.9666367 L141.875787,52.9666367 L141.875787,12.6107615 C141.874888,5.67470781 136.20018,0 129.264126,0 C122.328072,0 116.653365,5.67470781 116.653365,12.6107615 L116.653365,52.9666367 L89.5393734,52.9666367 C69.3614358,52.9666367 52.9675357,69.3614358 52.9675357,89.5384743 L52.9675357,116.652466 L12.6107615,116.652466 C5.67470781,116.652466 0,122.328072 0,129.264126 C0,136.20018 5.67470781,141.874888 12.6107615,141.874888 L52.9666367,141.874888 L52.9666367,182.230763 L12.6107615,182.230763 C5.67470781,182.230763 0,187.905471 0,194.841524 C0,201.777578 5.67470781,207.452286 12.6107615,207.452286 L52.9666367,207.452286 L52.9666367,247.808161 L12.6107615,247.808161 C5.67470781,247.808161 0,253.483768 0,260.419822 C0,267.355875 5.67470781,273.030583 12.6107615,273.030583 L52.9666367,273.030583 L52.9666367,312.125112 L12.6107615,312.125112 C5.67470781,312.125112 0,317.79982 0,324.736773 C0,331.672827 5.67470781,337.347534 12.6107615,337.347534 L52.9666367,337.347534 L52.9666367,364.461526 C52.9666367,384.639463 69.3614358,401.033363 89.5384743,401.033363 L116.652466,401.033363 L116.652466,441.389239 C116.652466,448.325292 122.327173,454 129.263227,454 C136.199281,454 141.873989,448.325292 141.873989,441.389239 L141.873989,401.033363 L182.229864,401.033363 L182.229864,441.389239 C182.229864,448.325292 187.904572,454 194.840625,454 C201.776679,454 207.451387,448.325292 207.451387,441.389239 L207.451387,401.033363 L247.807262,401.033363 L247.807262,441.389239 C247.807262,448.325292 253.48197,454 260.418023,454 C267.354077,454 273.028785,448.325292 273.028785,441.389239 L273.028785,401.033363 L312.123314,401.033363 L312.123314,441.389239 C312.123314,448.325292 317.798022,454 324.734076,454 C331.670129,454 337.344837,448.325292 337.344837,441.389239 L337.344837,401.033363 L364.458829,401.033363 C384.636766,401.033363 401.030666,384.638564 401.030666,364.461526 L401.030666,337.347534 L441.386541,337.347534 C448.322595,337.347534 454,331.672827 454,324.736773 C454,317.800719 448.322595,312.126011 441.386541,312.126011 L401.030666,312.126011 L401.030666,271.769237 L441.386541,271.769237 C448.322595,271.769237 454,266.094529 454,259.158476 C454,252.222422 448.322595,246.547714 441.386541,246.547714 L401.030666,246.547714 L401.030666,206.191839 L441.386541,206.191839 L441.386541,206.822062 C448.325292,206.822062 454,201.147355 454,194.211301 Z M376.442963,364.461526 L375.81184,364.461526 C375.81184,370.767356 370.767356,375.81184 364.461526,375.81184 L89.5393734,375.81184 C83.2335431,375.81184 78.1890587,370.767356 78.1890587,364.461526 L78.1890587,89.5393734 C78.1890587,83.2335431 83.2335431,78.1890587 89.5393734,78.1890587 L365.092648,78.1890587 C371.398478,78.1890587 376.442963,83.2335431 376.442963,89.5393734 L376.442963,364.461526 L376.442963,364.461526 Z" id="Shape"></path>
        </g>
    </g>
</svg>