<?xml version="1.0" standalone="no"?>
<!DOCTYPE svg PUBLIC "-//W3C//DTD SVG 20010904//EN"
 "http://www.w3.org/TR/2001/REC-SVG-20010904/DTD/svg10.dtd">
<svg version="1.0" xmlns="http://www.w3.org/2000/svg"
 width="230.000000pt" height="277.000000pt" viewBox="0 0 230.000000 277.000000"
 preserveAspectRatio="xMidYMid meet">

<g transform="translate(0.000000,277.000000) scale(0.100000,-0.100000)"
fill="#000000" stroke="none">
<path d="M1172 2660 c-14 -44 -16 -60 -7 -60 10 0 27 46 24 63 0 1 4 14 10 30
6 15 7 27 2 27 -5 0 -18 -27 -29 -60z"/>
<path d="M1236 2705 c4 -8 1 -22 -6 -30 -7 -8 -8 -15 -2 -15 16 0 35 29 28 45
-3 8 -10 15 -15 15 -6 0 -8 -7 -5 -15z"/>
<path d="M1174 2542 c-6 -9 -221 -382 -478 -829 l-467 -812 16 -248 c8 -136
16 -259 18 -272 2 -22 7 -25 52 -28 56 -3 617 -34 1055 -58 157 -9 335 -19
396 -23 l112 -7 201 248 202 247 -542 893 c-298 490 -544 895 -548 899 -4 4
-11 0 -17 -10z m-10 -227 c-18 -267 -21 -307 -64 -965 -22 -333 -42 -636 -44
-675 -3 -38 -8 -115 -11 -170 -7 -113 -13 -167 -20 -174 -10 -9 -722 32 -732
43 -2 2 191 471 428 1042 237 571 435 1050 440 1063 5 13 11 22 12 20 2 -2 -2
-85 -9 -184z m46 120 c4 -5 8 -22 8 -37 0 -15 7 -34 16 -43 19 -19 21 -32 5
-37 -5 -2 -7 -11 -3 -22 4 -11 9 -14 13 -7 4 6 40 -98 80 -232 40 -133 176
-583 302 -999 126 -417 229 -762 229 -769 0 -8 -25 -10 -92 -5 -118 9 -391 24
-575 32 -141 7 -143 7 -143 31 0 12 5 23 10 23 6 0 10 10 9 23 0 21 -1 21 -9
2 -6 -12 -7 25 -3 100 8 154 6 145 34 161 l24 13 -22 1 c-28 0 -27 -16 -8 272
26 389 35 529 45 668 5 74 12 185 15 245 3 61 8 124 10 140 2 17 7 87 10 157
4 70 11 125 16 123 4 -3 8 29 7 72 -1 43 0 96 2 118 3 36 3 37 7 10 3 -16 8
-34 13 -40z m520 -790 c277 -456 510 -840 518 -853 13 -20 13 -22 -2 -16 -9 3
-16 1 -16 -4 0 -6 7 -12 15 -14 11 -2 -43 -76 -171 -233 -102 -126 -189 -231
-193 -232 -3 -2 -54 158 -114 355 -64 215 -103 358 -97 360 7 3 5 9 -4 16 -9
6 -40 92 -70 191 -30 99 -127 419 -215 710 -88 292 -163 540 -167 550 -5 13
-4 17 3 10 6 -5 236 -383 513 -840z m-909 44 c-283 -682 -311 -745 -337 -756
-27 -11 -28 -12 -5 -13 14 0 21 -5 18 -12 -72 -179 -210 -505 -216 -511 -4 -4
-13 93 -20 215 -7 123 -15 233 -18 245 -3 14 2 25 14 32 15 9 16 10 2 11 -12
0 112 225 425 769 242 423 442 768 443 766 2 -1 -136 -336 -306 -746z"/>
<path d="M1020 1010 c0 -13 11 -13 30 0 12 8 11 10 -7 10 -13 0 -23 -4 -23
-10z"/>
<path d="M945 1000 c-3 -5 1 -10 9 -10 8 0 18 5 21 10 3 6 -1 10 -9 10 -8 0
-18 -4 -21 -10z"/>
<path d="M870 990 c-12 -8 -11 -10 8 -10 12 0 22 5 22 10 0 13 -11 13 -30 0z"/>
<path d="M795 980 c-19 -8 -19 -9 3 -9 12 -1 22 4 22 9 0 6 -1 10 -2 9 -2 0
-12 -4 -23 -9z"/>
<path d="M700 961 c0 -5 9 -7 20 -4 11 3 20 7 20 9 0 2 -9 4 -20 4 -11 0 -20
-4 -20 -9z"/>
<path d="M620 950 c0 -5 6 -10 14 -10 8 0 18 5 21 10 3 6 -3 10 -14 10 -12 0
-21 -4 -21 -10z"/>
<path d="M545 940 c-3 -5 3 -10 14 -10 11 0 23 5 26 10 3 6 -3 10 -14 10 -11
0 -23 -4 -26 -10z"/>
<path d="M1008 643 c-10 -2 -18 -8 -18 -13 0 -4 9 -6 20 -3 11 3 20 9 20 14 0
5 -1 8 -2 8 -2 -1 -11 -3 -20 -6z"/>
<path d="M925 610 c-19 -8 -19 -9 2 -9 12 -1 25 4 28 9 7 12 -2 12 -30 0z"/>
<path d="M850 580 c-13 -8 -13 -10 2 -10 9 0 20 5 23 10 8 13 -5 13 -25 0z"/>
<path d="M765 550 c-8 -13 15 -13 35 0 12 8 11 10 -7 10 -12 0 -25 -4 -28 -10z"/>
<path d="M708 532 c-10 -2 -18 -8 -18 -13 0 -11 11 -11 30 1 18 11 11 18 -12
12z"/>
<path d="M630 500 c-8 -5 -12 -11 -9 -14 3 -3 14 1 25 9 21 16 8 20 -16 5z"/>
<path d="M550 470 c-13 -8 -13 -10 2 -10 9 0 20 5 23 10 8 13 -5 13 -25 0z"/>
<path d="M470 440 c-13 -9 -13 -10 0 -10 8 0 22 5 30 10 13 9 13 10 0 10 -8 0
-22 -5 -30 -10z"/>
<path d="M408 422 c-10 -2 -18 -8 -18 -13 0 -11 11 -11 30 1 18 11 11 18 -12
12z"/>
<path d="M330 390 c-13 -8 -12 -10 3 -10 9 0 17 5 17 10 0 12 -1 12 -20 0z"/>
<path d="M1250 2233 c0 -12 5 -25 10 -28 13 -8 13 15 0 35 -8 12 -10 11 -10
-7z"/>
<path d="M1182 2215 c0 -16 2 -22 5 -12 2 9 2 23 0 30 -3 6 -5 -1 -5 -18z"/>
<path d="M1271 2153 c-1 -12 4 -25 9 -28 12 -7 12 2 0 30 -8 19 -9 19 -9 -2z"/>
<path d="M1182 2135 c0 -16 2 -22 5 -12 2 9 2 23 0 30 -3 6 -5 -1 -5 -18z"/>
<path d="M1287 2070 c3 -11 7 -20 9 -20 2 0 4 9 4 20 0 11 -4 20 -9 20 -5 0
-7 -9 -4 -20z"/>
<path d="M1182 2055 c0 -16 2 -22 5 -12 2 9 2 23 0 30 -3 6 -5 -1 -5 -18z"/>
<path d="M1300 2003 c0 -5 5 -15 10 -23 8 -12 10 -11 10 8 0 12 -4 22 -10 22
-5 0 -10 -3 -10 -7z"/>
<path d="M1182 1975 c0 -16 2 -22 5 -12 2 9 2 23 0 30 -3 6 -5 -1 -5 -18z"/>
<path d="M1320 1916 c0 -8 5 -18 10 -21 6 -3 10 1 10 9 0 8 -4 18 -10 21 -5 3
-10 -1 -10 -9z"/>
<path d="M1182 1895 c0 -16 2 -22 5 -12 2 9 2 23 0 30 -3 6 -5 -1 -5 -18z"/>
<path d="M1340 1833 c0 -13 5 -23 10 -23 13 0 13 11 0 30 -8 12 -10 11 -10 -7z"/>
<path d="M1182 1815 c0 -16 2 -22 5 -12 2 9 2 23 0 30 -3 6 -5 -1 -5 -18z"/>
<path d="M1357 1750 c3 -11 7 -20 9 -20 2 0 4 9 4 20 0 11 -4 20 -9 20 -5 0
-7 -9 -4 -20z"/>
<path d="M1182 1735 c0 -16 2 -22 5 -12 2 9 2 23 0 30 -3 6 -5 -1 -5 -18z"/>
<path d="M1371 1693 c0 -4 4 -17 9 -28 8 -19 9 -19 9 2 1 12 -3 25 -9 28 -5 3
-10 3 -9 -2z"/>
<path d="M1182 1655 c0 -16 2 -22 5 -12 2 9 2 23 0 30 -3 6 -5 -1 -5 -18z"/>
<path d="M1390 1606 c0 -8 5 -18 10 -21 6 -3 10 1 10 9 0 8 -4 18 -10 21 -5 3
-10 -1 -10 -9z"/>
<path d="M1182 1575 c0 -16 2 -22 5 -12 2 9 2 23 0 30 -3 6 -5 -1 -5 -18z"/>
<path d="M1410 1523 c0 -13 5 -23 10 -23 13 0 13 11 0 30 -8 12 -10 11 -10 -7z"/>
<path d="M1182 1495 c0 -16 2 -22 5 -12 2 9 2 23 0 30 -3 6 -5 -1 -5 -18z"/>
<path d="M1427 1440 c3 -11 9 -20 13 -20 5 0 6 9 3 20 -3 11 -9 20 -13 20 -5
0 -6 -9 -3 -20z"/>
<path d="M1182 1415 c0 -16 2 -22 5 -12 2 9 2 23 0 30 -3 6 -5 -1 -5 -18z"/>
<path d="M1447 1360 c3 -11 7 -20 9 -20 2 0 4 9 4 20 0 11 -4 20 -9 20 -5 0
-7 -9 -4 -20z"/>
<path d="M1182 1335 c0 -16 2 -22 5 -12 2 9 2 23 0 30 -3 6 -5 -1 -5 -18z"/>
<path d="M1259 1255 c-9 -36 -13 -65 -9 -65 8 0 20 30 25 60 2 8 6 27 10 43 4
15 3 27 -1 27 -5 0 -16 -29 -25 -65z"/>
<path d="M1460 1298 c0 -7 5 -20 10 -28 8 -12 10 -11 10 7 0 12 -4 25 -10 28
-5 3 -10 0 -10 -7z"/>
<path d="M1182 1255 c0 -16 2 -22 5 -12 2 9 2 23 0 30 -3 6 -5 -1 -5 -18z"/>
<path d="M1298 1262 c10 -7 10 -15 2 -37 -6 -15 -8 -30 -5 -33 8 -9 13 1 20
41 6 32 5 37 -11 37 -14 0 -15 -3 -6 -8z"/>
<path d="M1480 1213 c0 -13 5 -23 10 -23 13 0 13 11 0 30 -8 12 -10 11 -10 -7z"/>
<path d="M1182 1175 c0 -16 2 -22 5 -12 2 9 2 23 0 30 -3 6 -5 -1 -5 -18z"/>
<path d="M1500 1130 c0 -11 4 -20 9 -20 5 0 7 9 4 20 -3 11 -7 20 -9 20 -2 0
-4 -9 -4 -20z"/>
<path d="M1182 1095 c0 -16 2 -22 5 -12 2 9 2 23 0 30 -3 6 -5 -1 -5 -18z"/>
<path d="M1500 1080 c20 -13 33 -13 25 0 -3 6 -14 10 -23 10 -15 0 -15 -2 -2
-10z"/>
<path d="M1415 1070 c-8 -13 15 -13 35 0 12 8 11 10 -7 10 -12 0 -25 -4 -28
-10z"/>
<path d="M1335 1060 c-3 -5 3 -10 14 -10 11 0 23 5 26 10 3 6 -3 10 -14 10
-11 0 -23 -4 -26 -10z"/>
<path d="M1260 1050 c-12 -8 -9 -10 13 -10 15 0 27 5 27 10 0 13 -20 13 -40 0z"/>
<path d="M1575 1050 c3 -5 14 -10 23 -10 15 0 15 2 2 10 -20 13 -33 13 -25 0z"/>
<path d="M1179 1013 c5 -25 6 -26 9 -6 2 12 11 24 20 26 10 3 7 5 -9 6 -24 1
-26 -2 -20 -26z"/>
<path d="M1108 1023 c6 -2 18 -2 25 0 6 3 1 5 -13 5 -14 0 -19 -2 -12 -5z"/>
<path d="M1182 935 c0 -16 2 -22 5 -12 2 9 2 23 0 30 -3 6 -5 -1 -5 -18z"/>
<path d="M1182 850 c0 -14 2 -19 5 -12 2 6 2 18 0 25 -3 6 -5 1 -5 -13z"/>
<path d="M1367 796 c13 -23 1 -70 -24 -99 -18 -19 -17 -20 4 -8 43 22 58 86
26 112 -15 13 -15 12 -6 -5z"/>
<path d="M1182 775 c0 -16 2 -22 5 -12 2 9 2 23 0 30 -3 6 -5 -1 -5 -18z"/>
<path d="M1290 768 c-24 -40 -25 -52 -4 -72 20 -20 30 -21 14 -1 -14 17 -6 62
17 88 10 11 12 17 4 17 -6 0 -20 -15 -31 -32z"/>
<path d="M1181 714 c0 -7 -11 -15 -23 -18 -22 -7 -22 -7 -3 -15 25 -11 38 1
32 25 -3 11 -5 14 -6 8z"/>
<path d="M1147 624 c-4 -4 -7 -14 -7 -23 0 -11 3 -12 11 -4 6 6 10 16 7 23 -2
6 -7 8 -11 4z"/>
<path d="M1115 540 c-4 -12 -5 -24 -2 -27 3 -2 8 5 12 17 4 12 5 24 2 27 -3 2
-8 -5 -12 -17z"/>
<path d="M1086 464 c-10 -25 1 -29 14 -5 6 12 7 21 1 21 -5 0 -12 -7 -15 -16z"/>
<path d="M1715 990 c3 -5 14 -10 23 -10 15 0 15 2 2 10 -20 13 -33 13 -25 0z"/>
<path d="M1790 960 c0 -7 24 -20 36 -20 13 0 1 19 -16 23 -11 3 -20 2 -20 -3z"/>
<path d="M1860 930 c0 -4 9 -10 20 -13 11 -3 20 -2 20 3 0 4 -9 10 -20 13 -11
3 -20 2 -20 -3z"/>
<path d="M1945 890 c3 -5 13 -10 21 -10 8 0 12 5 9 10 -3 6 -13 10 -21 10 -8
0 -12 -4 -9 -10z"/>
<path d="M2020 860 c20 -13 33 -13 25 0 -3 6 -14 10 -23 10 -15 0 -15 -2 -2
-10z"/>
<path d="M2085 830 c3 -5 13 -10 21 -10 8 0 12 5 9 10 -3 6 -13 10 -21 10 -8
0 -12 -4 -9 -10z"/>
<path d="M2160 800 c0 -5 10 -10 23 -10 18 0 19 2 7 10 -19 13 -30 13 -30 0z"/>
<path d="M393 913 c9 -2 23 -2 30 0 6 3 -1 5 -18 5 -16 0 -22 -2 -12 -5z"/>
<path d="M304 901 c3 -5 15 -7 26 -4 28 7 25 13 -6 13 -14 0 -23 -4 -20 -9z"/>
<path d="M116 1011 c-13 -14 -14 -20 -5 -23 7 -2 9 -10 5 -16 -10 -16 -29 -15
-21 1 4 6 -7 -4 -23 -23 -17 -19 -28 -37 -26 -39 2 -3 11 5 20 17 19 27 44 29
44 2 0 -11 4 -20 9 -20 5 0 11 27 13 60 1 33 3 60 2 60 0 0 -9 -9 -18 -19z"/>
<path d="M150 888 c0 -19 2 -20 10 -8 13 19 13 30 0 30 -5 0 -10 -10 -10 -22z"/>
<path d="M182 890 c0 -14 2 -19 5 -12 2 6 2 18 0 25 -3 6 -5 1 -5 -13z"/>
<path d="M204 288 c-5 -7 -7 -23 -5 -35 2 -16 -3 -23 -15 -23 -11 0 -14 4 -8
13 5 7 -3 -1 -18 -18 -29 -31 -34 -45 -19 -45 5 0 11 9 14 20 3 12 14 20 27
20 17 0 20 -4 15 -20 -3 -11 -2 -20 3 -20 9 0 26 109 18 117 -2 2 -8 -2 -12
-9z"/>
<path d="M1020 241 c0 -10 -7 -37 -15 -60 l-14 -41 44 0 c25 0 45 4 45 8 0 4
-16 6 -36 4 -20 -3 -34 -1 -31 4 3 5 10 29 17 53 11 41 13 43 41 37 16 -3 29
-1 29 4 0 6 -18 10 -40 10 -32 0 -40 -4 -40 -19z"/>
<path d="M1057 213 c-4 -3 -7 -11 -7 -17 0 -6 5 -5 12 2 6 6 9 14 7 17 -3 3
-9 2 -12 -2z"/>
<path d="M1876 182 c-11 -15 -31 -42 -44 -60 -13 -17 -20 -32 -14 -32 6 0 14
9 17 20 4 11 15 20 27 20 15 0 19 -5 15 -20 -3 -12 0 -20 7 -20 9 0 13 20 15
60 1 33 1 60 -1 60 -2 0 -12 -13 -22 -28z m8 -27 c-4 -8 -10 -15 -15 -15 -4 0
-6 7 -3 15 4 8 10 15 15 15 4 0 6 -7 3 -15z"/>
<path d="M232 170 c-1 -16 2 -30 8 -30 5 0 10 14 10 30 0 17 -4 30 -8 30 -4 0
-9 -13 -10 -30z"/>
<path d="M1925 110 c-3 -5 -2 -10 4 -10 5 0 11 -8 13 -17 3 -17 4 -17 10 -1 8
19 -16 45 -27 28z"/>
<path d="M1920 50 c0 -6 7 -10 15 -10 8 0 15 2 15 4 0 2 -7 6 -15 10 -8 3 -15
1 -15 -4z"/>
</g>
</svg>
