<?xml version="1.0" encoding="UTF-8"?>
<svg width="755px" height="528px" viewBox="0 0 755 528" version="1.1" xmlns="http://www.w3.org/2000/svg" xmlns:xlink="http://www.w3.org/1999/xlink">
    <title>Untitled</title>
    <g id="Page-1" stroke="none" stroke-width="1" fill="none" fill-rule="evenodd">
        <path d="M724.029954,245.136709 L671.067851,245.136709 C689.118589,219.297194 709.634864,200.224191 731.376797,189.449101 C739.566813,185.406492 742.892585,175.490686 738.838811,167.338825 C734.785038,159.171366 724.87455,155.82214 716.667471,159.897362 C682.484107,176.809391 651.411812,209.248099 626.826124,253.665748 C594.512529,312.009198 552.652448,344.134538 508.939659,344.134538 C471.861352,344.134538 436.156579,320.787799 406.440756,278.135512 L558.574569,278.135512 C567.707289,278.135512 575.119538,270.760694 575.119538,261.636111 C575.119538,252.511527 567.707289,245.136709 558.574569,245.136709 L393.119183,245.136709 L393.119183,63.6376172 L409.664153,63.6376172 C416.3484,63.6376172 422.387115,59.6276217 424.952183,53.4566526 C427.51725,47.2856835 426.09395,40.1902033 421.361941,35.471227 L388.27058,2.4710054 C381.801036,-3.98072012 371.344547,-3.98072012 364.875003,2.4710054 L331.785063,35.4726449 C327.053054,40.1916213 325.629754,47.2871014 328.194822,53.4580705 C330.759889,59.6290396 336.798604,63.6390352 343.482852,63.6390352 L360.027821,63.6390352 L360.027821,207.879766 C326.472928,167.718839 286.51674,146.137462 244.208767,146.137462 C190.353724,146.137462 140.451502,181.41493 102.579787,245.136709 L29.1184719,245.136709 C19.985751,245.136709 12.5735021,252.512945 12.5735021,261.636111 C12.5735021,270.760694 19.985751,278.135512 29.1184719,278.135512 L82.0805754,278.135512 C64.029837,303.975028 43.5135626,323.049448 21.7730513,333.824538 C13.5830353,337.867147 10.2572632,347.782953 14.3110368,355.934814 C17.1903393,361.759801 23.0470538,365.109026 29.1355345,365.109026 C31.6010705,365.109026 34.1163723,364.564529 36.4823769,363.393293 C70.6643187,346.479846 101.736614,314.041137 126.323724,269.622071 C158.637319,211.261605 200.4974,179.136266 244.210189,179.136266 C281.288496,179.136266 316.993269,202.483004 346.709092,245.135291 L194.573858,245.135291 C185.441137,245.135291 178.028888,252.510109 178.028888,261.634693 C178.028888,270.759276 185.441137,278.134094 194.573858,278.134094 L360.029243,278.134094 L360.029243,509.132809 C360.029243,518.257393 367.441492,525.632211 376.574213,525.632211 C385.706934,525.632211 393.119183,518.257393 393.119183,509.132809 L393.119183,315.393873 C426.674077,355.554801 466.630264,377.136177 508.938237,377.136177 C562.79328,377.136177 612.695502,341.858709 650.567217,278.13693 L724.028532,278.13693 C733.161253,278.13693 740.573502,270.762112 740.573502,261.637529 C740.573502,252.512945 733.162675,245.136709 724.029954,245.136709 Z" id="Path" fill="#FFFFFF" fill-rule="nonzero" transform="translate(376.573502, 261.632211) rotate(-13.000000) translate(-376.573502, -261.632211) "></path>
    </g>
</svg>